<svg width="21" height="16" viewBox="0 0 21 16" fill="none" xmlns="http://www.w3.org/2000/svg">
<g style="mix-blend-mode:multiply">
<path d="M1.17 0.367C1.29 0.367 1.395 0.409 1.485 0.493C1.581 0.571 1.629 0.697 1.629 0.871C1.629 1.039 1.581 1.165 1.485 1.249C1.395 1.333 1.29 1.375 1.17 1.375C1.038 1.375 0.927 1.333 0.837 1.249C0.747 1.165 0.702 1.039 0.702 0.871C0.702 0.697 0.747 0.571 0.837 0.493C0.927 0.409 1.038 0.367 1.17 0.367ZM1.557 2.176V7H0.765V2.176H1.557ZM5.86631 5.668C5.86631 6.136 5.69231 6.49 5.34431 6.73C4.99631 6.97 4.52831 7.09 3.94031 7.09C3.60431 7.09 3.31331 7.063 3.06731 7.009C2.82731 6.955 2.61431 6.88 2.42831 6.784V6.064C2.62031 6.16 2.85131 6.25 3.12131 6.334C3.39731 6.412 3.67631 6.451 3.95831 6.451C4.36031 6.451 4.65131 6.388 4.83131 6.262C5.01131 6.13 5.10131 5.956 5.10131 5.74C5.10131 5.62 5.06831 5.512 5.00231 5.416C4.93631 5.32 4.81631 5.224 4.64231 5.128C4.47431 5.032 4.23131 4.924 3.91331 4.804C3.60131 4.684 3.33431 4.564 3.11231 4.444C2.89031 4.324 2.71931 4.18 2.59931 4.012C2.47931 3.844 2.41931 3.628 2.41931 3.364C2.41931 2.956 2.58431 2.641 2.91431 2.419C3.25031 2.197 3.68831 2.086 4.22831 2.086C4.52231 2.086 4.79531 2.116 5.04731 2.176C5.30531 2.23 5.54531 2.308 5.76731 2.41L5.49731 3.04C5.29331 2.956 5.08031 2.884 4.85831 2.824C4.63631 2.764 4.40831 2.734 4.17431 2.734C3.85031 2.734 3.60131 2.788 3.42731 2.896C3.25931 2.998 3.17531 3.139 3.17531 3.319C3.17531 3.451 3.21431 3.565 3.29231 3.661C3.37031 3.751 3.49931 3.841 3.67931 3.931C3.86531 4.015 4.11131 4.117 4.41731 4.237C4.72331 4.351 4.98431 4.468 5.20031 4.588C5.41631 4.708 5.58131 4.855 5.69531 5.029C5.80931 5.197 5.86631 5.41 5.86631 5.668ZM2.475 8.086C2.793 8.086 3.078 8.146 3.33 8.266C3.588 8.386 3.807 8.569 3.987 8.815H4.032L4.14 8.176H4.77V13.081C4.77 13.771 4.593 14.29 4.239 14.638C3.891 14.986 3.348 15.16 2.61 15.16C1.902 15.16 1.323 15.058 0.873 14.854V14.125C1.347 14.377 1.941 14.503 2.655 14.503C3.069 14.503 3.393 14.38 3.627 14.134C3.867 13.894 3.987 13.564 3.987 13.144V12.955C3.987 12.883 3.99 12.781 3.996 12.649C4.002 12.511 4.008 12.415 4.014 12.361H3.978C3.654 12.847 3.156 13.09 2.484 13.09C1.86 13.09 1.371 12.871 1.017 12.433C0.669 11.995 0.495 11.383 0.495 10.597C0.495 9.829 0.669 9.22 1.017 8.77C1.371 8.314 1.857 8.086 2.475 8.086ZM2.583 8.752C2.181 8.752 1.869 8.914 1.647 9.238C1.425 9.556 1.314 10.012 1.314 10.606C1.314 11.2 1.422 11.656 1.638 11.974C1.86 12.286 2.181 12.442 2.601 12.442C3.087 12.442 3.441 12.313 3.663 12.055C3.885 11.791 3.996 11.368 3.996 10.786V10.597C3.996 9.937 3.882 9.466 3.654 9.184C3.426 8.896 3.069 8.752 2.583 8.752ZM10.1361 10.579C10.1361 11.377 9.93211 11.995 9.52411 12.433C9.12211 12.871 8.57611 13.09 7.88611 13.09C7.46011 13.09 7.07911 12.994 6.74311 12.802C6.41311 12.604 6.15211 12.319 5.96011 11.947C5.76811 11.569 5.67211 11.113 5.67211 10.579C5.67211 9.781 5.87311 9.166 6.27511 8.734C6.67711 8.302 7.22311 8.086 7.91311 8.086C8.35111 8.086 8.73511 8.185 9.06511 8.383C9.40111 8.575 9.66211 8.857 9.84811 9.229C10.0401 9.595 10.1361 10.045 10.1361 10.579ZM6.49111 10.579C6.49111 11.149 6.60211 11.602 6.82411 11.938C7.05211 12.268 7.41211 12.433 7.90411 12.433C8.39011 12.433 8.74711 12.268 8.97511 11.938C9.20311 11.602 9.31711 11.149 9.31711 10.579C9.31711 10.009 9.20311 9.562 8.97511 9.238C8.74711 8.914 8.38711 8.752 7.89511 8.752C7.40311 8.752 7.04611 8.914 6.82411 9.238C6.60211 9.562 6.49111 10.009 6.49111 10.579ZM15.2253 10.579C15.2253 11.377 15.0213 11.995 14.6133 12.433C14.2113 12.871 13.6653 13.09 12.9753 13.09C12.5493 13.09 12.1683 12.994 11.8323 12.802C11.5023 12.604 11.2413 12.319 11.0493 11.947C10.8573 11.569 10.7613 11.113 10.7613 10.579C10.7613 9.781 10.9623 9.166 11.3643 8.734C11.7663 8.302 12.3123 8.086 13.0023 8.086C13.4403 8.086 13.8243 8.185 14.1543 8.383C14.4903 8.575 14.7513 8.857 14.9373 9.229C15.1293 9.595 15.2253 10.045 15.2253 10.579ZM11.5803 10.579C11.5803 11.149 11.6913 11.602 11.9133 11.938C12.1413 12.268 12.5013 12.433 12.9933 12.433C13.4793 12.433 13.8363 12.268 14.0643 11.938C14.2923 11.602 14.4063 11.149 14.4063 10.579C14.4063 10.009 14.2923 9.562 14.0643 9.238C13.8363 8.914 13.4763 8.752 12.9843 8.752C12.4923 8.752 12.1353 8.914 11.9133 9.238C11.6913 9.562 11.5803 10.009 11.5803 10.579ZM17.8305 13.09C17.2305 13.09 16.7505 12.883 16.3905 12.469C16.0305 12.049 15.8505 11.425 15.8505 10.597C15.8505 9.769 16.0305 9.145 16.3905 8.725C16.7565 8.299 17.2395 8.086 17.8395 8.086C18.2115 8.086 18.5145 8.155 18.7485 8.293C18.9885 8.431 19.1835 8.599 19.3335 8.797H19.3875C19.3815 8.719 19.3695 8.605 19.3515 8.455C19.3395 8.299 19.3335 8.176 19.3335 8.086V6.16H20.1255V13H19.4865L19.3695 12.352H19.3335C19.1895 12.556 18.9975 12.73 18.7575 12.874C18.5175 13.018 18.2085 13.09 17.8305 13.09ZM17.9565 12.433C18.4665 12.433 18.8235 12.295 19.0275 12.019C19.2375 11.737 19.3425 11.314 19.3425 10.75V10.606C19.3425 10.006 19.2435 9.547 19.0455 9.229C18.8475 8.905 18.4815 8.743 17.9475 8.743C17.5215 8.743 17.2005 8.914 16.9845 9.256C16.7745 9.592 16.6695 10.045 16.6695 10.615C16.6695 11.191 16.7745 11.638 16.9845 11.956C17.2005 12.274 17.5245 12.433 17.9565 12.433Z" fill="black"/>
<path d="M1.485 0.493L1.41661 0.566278L1.42194 0.570611L1.485 0.493ZM1.485 1.249L1.41912 1.1737L1.41677 1.17589L1.485 1.249ZM0.837 1.249L0.905232 1.17589L0.905232 1.17589L0.837 1.249ZM0.837 0.493L0.902538 0.56862L0.905232 0.566105L0.837 0.493ZM1.557 2.176H1.657V2.076H1.557V2.176ZM1.557 7V7.1H1.657V7H1.557ZM0.765 7H0.665V7.1H0.765V7ZM0.765 2.176V2.076H0.665V2.176H0.765ZM1.17 0.467C1.26395 0.467 1.34475 0.498892 1.41677 0.566105L1.55323 0.419894C1.44525 0.319108 1.31605 0.267 1.17 0.267V0.467ZM1.42194 0.570611C1.48616 0.622786 1.529 0.714275 1.529 0.871H1.729C1.729 0.679725 1.67584 0.519213 1.54806 0.415388L1.42194 0.570611ZM1.529 0.871C1.529 1.01986 1.48709 1.1143 1.41915 1.17374L1.55085 1.32426C1.67491 1.2157 1.729 1.05814 1.729 0.871H1.529ZM1.41677 1.17589C1.34475 1.24311 1.26395 1.275 1.17 1.275V1.475C1.31605 1.475 1.44525 1.42289 1.55323 1.3221L1.41677 1.17589ZM1.17 1.275C1.06133 1.275 0.975301 1.24129 0.905232 1.17589L0.768768 1.3221C0.878699 1.42471 1.01467 1.475 1.17 1.475V1.275ZM0.905232 1.17589C0.842054 1.11693 0.802 1.02175 0.802 0.871H0.602C0.602 1.05625 0.651946 1.21307 0.768768 1.32211L0.905232 1.17589ZM0.802 0.871C0.802 0.712341 0.842967 0.620158 0.902493 0.568568L0.771507 0.417431C0.651033 0.521841 0.602 0.681658 0.602 0.871H0.802ZM0.905232 0.566105C0.975301 0.500707 1.06133 0.467 1.17 0.467V0.267C1.01467 0.267 0.878699 0.317292 0.768768 0.419894L0.905232 0.566105ZM1.457 2.176V7H1.657V2.176H1.457ZM1.557 6.9H0.765V7.1H1.557V6.9ZM0.865 7V2.176H0.665V7H0.865ZM0.765 2.276H1.557V2.076H0.765V2.276ZM5.34431 6.73L5.28754 6.64768L5.28754 6.64768L5.34431 6.73ZM3.06731 7.009L3.04536 7.10656L3.04587 7.10667L3.06731 7.009ZM2.42831 6.784H2.32831V6.84492L2.38245 6.87286L2.42831 6.784ZM2.42831 6.064L2.47303 5.97456L2.32831 5.9022V6.064H2.42831ZM3.12131 6.334L3.0916 6.42952L3.09412 6.43023L3.12131 6.334ZM4.83131 6.262L4.88867 6.34394L4.89045 6.34264L4.83131 6.262ZM5.00231 5.416L5.08472 5.35935L5.08472 5.35935L5.00231 5.416ZM4.64231 5.128L4.59269 5.21483L4.594 5.21556L4.64231 5.128ZM3.91331 4.804L3.87741 4.89734L3.87801 4.89756L3.91331 4.804ZM2.59931 4.012L2.51794 4.07012L2.51794 4.07012L2.59931 4.012ZM2.91431 2.419L2.85918 2.33556L2.85849 2.33603L2.91431 2.419ZM5.04731 2.176L5.02414 2.27332L5.02683 2.27388L5.04731 2.176ZM5.76731 2.41L5.85923 2.44939L5.89762 2.35982L5.80906 2.31913L5.76731 2.41ZM5.49731 3.04L5.45924 3.13247L5.55039 3.17L5.58923 3.07939L5.49731 3.04ZM4.85831 2.824L4.83222 2.92054L4.83222 2.92054L4.85831 2.824ZM3.42731 2.896L3.47921 2.98148L3.48005 2.98096L3.42731 2.896ZM3.29231 3.661L3.21466 3.72409L3.21674 3.72649L3.29231 3.661ZM3.67931 3.931L3.63456 4.02051L3.63815 4.02214L3.67931 3.931ZM4.41731 4.237L4.3808 4.33011L4.3824 4.33071L4.41731 4.237ZM5.20031 4.588L5.15175 4.67542L5.15175 4.67542L5.20031 4.588ZM5.69531 5.029L5.61166 5.08381L5.61257 5.08515L5.69531 5.029ZM5.76631 5.668C5.76631 6.10724 5.60525 6.42857 5.28754 6.64768L5.40109 6.81232C5.77937 6.55143 5.96631 6.16476 5.96631 5.668H5.76631ZM5.28754 6.64768C4.9616 6.87246 4.51571 6.99 3.94031 6.99V7.19C4.54091 7.19 5.03102 7.06754 5.40109 6.81232L5.28754 6.64768ZM3.94031 6.99C3.60929 6.99 3.32582 6.96337 3.08875 6.91133L3.04587 7.10667C3.3008 7.16263 3.59933 7.19 3.94031 7.19V6.99ZM3.08926 6.91144C2.85616 6.85899 2.65142 6.78662 2.47418 6.69514L2.38245 6.87286C2.5772 6.97338 2.79846 7.05101 3.04536 7.10656L3.08926 6.91144ZM2.52831 6.784V6.064H2.32831V6.784H2.52831ZM2.38359 6.15344C2.58166 6.25248 2.81796 6.34435 3.09161 6.42949L3.15102 6.23851C2.88466 6.15565 2.65896 6.06752 2.47303 5.97456L2.38359 6.15344ZM3.09412 6.43023C3.37881 6.51069 3.66696 6.551 3.95831 6.551V6.351C3.68567 6.351 3.41581 6.31331 3.14851 6.23777L3.09412 6.43023ZM3.95831 6.551C4.36608 6.551 4.68285 6.48799 4.88866 6.34392L4.77397 6.18008C4.61977 6.28801 4.35454 6.351 3.95831 6.351V6.551ZM4.89045 6.34264C5.09513 6.19254 5.20131 5.98909 5.20131 5.74H5.00131C5.00131 5.92291 4.9275 6.06746 4.77218 6.18136L4.89045 6.34264ZM5.20131 5.74C5.20131 5.60042 5.16254 5.47254 5.08472 5.35935L4.91991 5.47265C4.97409 5.55146 5.00131 5.63958 5.00131 5.74H5.20131ZM5.08472 5.35935C5.00575 5.24449 4.86989 5.13935 4.69062 5.04044L4.594 5.21556C4.76274 5.30865 4.86687 5.39551 4.91991 5.47265L5.08472 5.35935ZM4.69193 5.04118C4.51716 4.94131 4.26846 4.83113 3.94862 4.71044L3.87801 4.89756C4.19416 5.01686 4.43146 5.12269 4.5927 5.21482L4.69193 5.04118ZM3.94921 4.71067C3.64001 4.59174 3.37712 4.47346 3.15986 4.35603L3.06476 4.53197C3.29151 4.65454 3.56262 4.77626 3.87741 4.89733L3.94921 4.71067ZM3.15986 4.35603C2.94834 4.24169 2.79008 4.10703 2.68069 3.95388L2.51794 4.07012C2.64854 4.25297 2.83229 4.40631 3.06476 4.53197L3.15986 4.35603ZM2.68069 3.95388C2.57579 3.80703 2.51931 3.61298 2.51931 3.364H2.31931C2.31931 3.64302 2.38283 3.88097 2.51794 4.07012L2.68069 3.95388ZM2.51931 3.364C2.51931 2.98825 2.6686 2.70482 2.97013 2.50197L2.85849 2.33603C2.50003 2.57718 2.31931 2.92375 2.31931 3.364H2.51931ZM2.96944 2.50243C3.28437 2.29435 3.70138 2.186 4.22831 2.186V1.986C3.67524 1.986 3.21625 2.09965 2.85919 2.33557L2.96944 2.50243ZM4.22831 2.186C4.51554 2.186 4.78068 2.21531 5.02415 2.27328L5.07047 2.07872C4.80995 2.01669 4.52909 1.986 4.22831 1.986V2.186ZM5.02683 2.27388C5.27807 2.32646 5.51088 2.40223 5.72556 2.50087L5.80906 2.31913C5.57975 2.21377 5.33255 2.13353 5.0678 2.07812L5.02683 2.27388ZM5.6754 2.37061L5.4054 3.00061L5.58923 3.07939L5.85923 2.44939L5.6754 2.37061ZM5.53539 2.94753C5.32732 2.86186 5.11031 2.78852 4.8844 2.72746L4.83222 2.92054C5.05032 2.97948 5.2593 3.05014 5.45924 3.13247L5.53539 2.94753ZM4.8844 2.72746C4.65375 2.66512 4.41697 2.634 4.17431 2.634V2.834C4.39966 2.834 4.61888 2.86288 4.83222 2.92054L4.8844 2.72746ZM4.17431 2.634C3.84157 2.634 3.57112 2.68905 3.37458 2.81104L3.48005 2.98096C3.63151 2.88695 3.85905 2.834 4.17431 2.834V2.634ZM3.37541 2.81052C3.18085 2.92865 3.07531 3.10036 3.07531 3.319H3.27531C3.27531 3.17764 3.33777 3.06735 3.47921 2.98148L3.37541 2.81052ZM3.07531 3.319C3.07531 3.47231 3.12121 3.60899 3.2147 3.72406L3.36992 3.59794C3.30742 3.52101 3.27531 3.42969 3.27531 3.319H3.07531ZM3.21674 3.72649C3.30731 3.83099 3.44983 3.92806 3.63459 4.02044L3.72403 3.84156C3.5488 3.75394 3.43331 3.67101 3.36788 3.59551L3.21674 3.72649ZM3.63815 4.02214C3.82632 4.10712 4.07406 4.2098 4.3808 4.3301L4.45382 4.1439C4.14857 4.0242 3.9043 3.92288 3.72047 3.83986L3.63815 4.02214ZM4.3824 4.33071C4.6851 4.44348 4.94127 4.55848 5.15175 4.67542L5.24888 4.50058C5.02735 4.37752 4.76153 4.25852 4.45222 4.14329L4.3824 4.33071ZM5.15175 4.67542C5.35624 4.78902 5.50807 4.92568 5.61167 5.0838L5.77896 4.9742C5.65455 4.78432 5.47639 4.62698 5.24888 4.50058L5.15175 4.67542ZM5.61257 5.08515C5.71263 5.23261 5.76631 5.42461 5.76631 5.668H5.96631C5.96631 5.39539 5.906 5.16139 5.77806 4.97285L5.61257 5.08515ZM3.33 8.266L3.287 8.35629L3.28783 8.35667L3.33 8.266ZM3.987 8.815L3.9063 8.87405L3.93626 8.915H3.987V8.815ZM4.032 8.815V8.915H4.11652L4.1306 8.83166L4.032 8.815ZM4.14 8.176V8.076H4.05548L4.0414 8.15933L4.14 8.176ZM4.77 8.176H4.87V8.076H4.77V8.176ZM4.239 14.638L4.16889 14.5667L4.16829 14.5673L4.239 14.638ZM0.873 14.854H0.773V14.9185L0.831711 14.9451L0.873 14.854ZM0.873 14.125L0.919943 14.0367L0.773 13.9586V14.125H0.873ZM3.627 14.134L3.55627 14.0633L3.55454 14.0651L3.627 14.134ZM3.996 12.649L4.0959 12.6535L4.09591 12.6533L3.996 12.649ZM4.014 12.361L4.11339 12.372L4.12573 12.261H4.014V12.361ZM3.978 12.361V12.261H3.92448L3.8948 12.3055L3.978 12.361ZM1.017 12.433L0.938702 12.4952L0.939226 12.4959L1.017 12.433ZM1.017 8.77L0.938009 8.70868L0.937895 8.70882L1.017 8.77ZM1.647 9.238L1.729 9.29524L1.72949 9.29452L1.647 9.238ZM1.638 11.974L1.55526 12.0302L1.55652 12.032L1.638 11.974ZM3.663 12.055L3.73881 12.1202L3.73954 12.1194L3.663 12.055ZM3.654 9.184L3.57559 9.24607L3.57624 9.24687L3.654 9.184ZM2.475 8.186C2.7802 8.186 3.05019 8.24352 3.28701 8.35629L3.37299 8.17571C3.10581 8.04848 2.8058 7.986 2.475 7.986V8.186ZM3.28783 8.35667C3.52943 8.46905 3.73553 8.64067 3.9063 8.87405L4.0677 8.75595C3.87847 8.49733 3.64657 8.30295 3.37217 8.17533L3.28783 8.35667ZM3.987 8.915H4.032V8.715H3.987V8.915ZM4.1306 8.83166L4.2386 8.19266L4.0414 8.15933L3.9334 8.79833L4.1306 8.83166ZM4.14 8.276H4.77V8.076H4.14V8.276ZM4.67 8.176V13.081H4.87V8.176H4.67ZM4.67 13.081C4.67 13.7549 4.49731 14.2438 4.1689 14.5667L4.3091 14.7093C4.68869 14.3362 4.87 13.7871 4.87 13.081H4.67ZM4.16829 14.5673C3.84662 14.889 3.33457 15.06 2.61 15.06V15.26C3.36143 15.26 3.93538 15.083 4.30971 14.7087L4.16829 14.5673ZM2.61 15.06C1.91053 15.06 1.34697 14.9591 0.914289 14.7629L0.831711 14.9451C1.29903 15.1569 1.89347 15.26 2.61 15.26V15.06ZM0.973 14.854V14.125H0.773V14.854H0.973ZM0.826057 14.2133C1.31849 14.4751 1.92982 14.603 2.655 14.603V14.403C1.95218 14.403 1.37551 14.2789 0.919943 14.0367L0.826057 14.2133ZM2.655 14.603C3.08994 14.603 3.44255 14.473 3.69946 14.2029L3.55454 14.0651C3.34345 14.287 3.04806 14.403 2.655 14.403V14.603ZM3.69771 14.2047C3.96071 13.9417 4.087 13.5838 4.087 13.144H3.887C3.887 13.5442 3.77329 13.8463 3.55629 14.0633L3.69771 14.2047ZM4.087 13.144V12.955H3.887V13.144H4.087ZM4.087 12.955C4.087 12.8853 4.08992 12.7851 4.0959 12.6535L3.8961 12.6445C3.89008 12.7769 3.887 12.8807 3.887 12.955H4.087ZM4.09591 12.6533C4.10191 12.5152 4.1078 12.4223 4.11339 12.372L3.91461 12.35C3.9082 12.4077 3.90209 12.5068 3.89609 12.6447L4.09591 12.6533ZM4.014 12.261H3.978V12.461H4.014V12.261ZM3.8948 12.3055C3.59237 12.7592 3.12842 12.99 2.484 12.99V13.19C3.18358 13.19 3.71563 12.9348 4.06121 12.4165L3.8948 12.3055ZM2.484 12.99C1.8865 12.99 1.42757 12.7819 1.09477 12.3701L0.939226 12.4959C1.31443 12.9601 1.8335 13.19 2.484 13.19V12.99ZM1.0953 12.3708C0.766069 11.9564 0.595 11.3694 0.595 10.597H0.395C0.395 11.3966 0.571931 12.0336 0.938704 12.4952L1.0953 12.3708ZM0.595 10.597C0.595 9.84345 0.765705 9.25842 1.09611 8.83117L0.937895 8.70882C0.572295 9.18158 0.395 9.81455 0.395 10.597H0.595ZM1.09599 8.83132C1.42956 8.40165 1.88537 8.186 2.475 8.186V7.986C1.82863 7.986 1.31244 8.22635 0.938009 8.70868L1.09599 8.83132ZM2.583 8.652C2.14894 8.652 1.80567 8.82951 1.56451 9.18148L1.72949 9.29452C1.93233 8.99849 2.21306 8.852 2.583 8.852V8.652ZM1.565 9.18076C1.32656 9.52231 1.214 10.0017 1.214 10.606H1.414C1.414 10.0223 1.52344 9.58969 1.729 9.29524L1.565 9.18076ZM1.214 10.606C1.214 11.2099 1.32342 11.6888 1.55528 12.0302L1.72072 11.9178C1.52058 11.6232 1.414 11.1901 1.414 10.606H1.214ZM1.55652 12.032C1.7993 12.3732 2.1523 12.542 2.601 12.542V12.342C2.2097 12.342 1.9207 12.1988 1.71948 11.916L1.55652 12.032ZM2.601 12.542C3.10326 12.542 3.49077 12.4085 3.7388 12.1202L3.5872 11.9898C3.39123 12.2175 3.07074 12.342 2.601 12.342V12.542ZM3.73954 12.1194C3.98409 11.8285 4.096 11.3767 4.096 10.786H3.896C3.896 11.3593 3.78591 11.7535 3.58646 11.9906L3.73954 12.1194ZM4.096 10.786V10.597H3.896V10.786H4.096ZM4.096 10.597C4.096 9.93068 3.98193 9.43054 3.73176 9.12113L3.57624 9.24687C3.78207 9.50146 3.896 9.94332 3.896 10.597H4.096ZM3.7324 9.12193C3.4797 8.80272 3.08892 8.652 2.583 8.652V8.852C3.04908 8.852 3.37231 8.98928 3.5756 9.24607L3.7324 9.12193ZM9.52411 12.433L9.45094 12.3648L9.45044 12.3654L9.52411 12.433ZM6.74311 12.802L6.69165 12.8878L6.6935 12.8888L6.74311 12.802ZM5.96011 11.947L5.87095 11.9923L5.87125 11.9929L5.96011 11.947ZM6.27511 8.734L6.2019 8.66588L6.2019 8.66588L6.27511 8.734ZM9.06511 8.383L9.01365 8.46877L9.0155 8.46982L9.06511 8.383ZM9.84811 9.229L9.75865 9.27373L9.75955 9.27545L9.84811 9.229ZM6.82411 11.938L6.74066 11.9931L6.74184 11.9948L6.82411 11.938ZM8.97511 11.938L9.05739 11.9948L9.05786 11.9942L8.97511 11.938ZM8.97511 9.238L9.05689 9.18045L9.05689 9.18045L8.97511 9.238ZM6.82411 9.238L6.9066 9.29452L6.9066 9.29452L6.82411 9.238ZM10.0361 10.579C10.0361 11.3603 9.83661 11.9508 9.45094 12.3648L9.59728 12.5012C10.0276 12.0392 10.2361 11.3937 10.2361 10.579H10.0361ZM9.45044 12.3654C9.07047 12.7794 8.55303 12.99 7.88611 12.99V13.19C8.59919 13.19 9.17375 12.9626 9.59778 12.5006L9.45044 12.3654ZM7.88611 12.99C7.47571 12.99 7.11212 12.8977 6.79272 12.7152L6.6935 12.8888C7.04609 13.0903 7.44451 13.19 7.88611 13.19V12.99ZM6.79456 12.7163C6.48188 12.5286 6.23322 12.2581 6.04897 11.9011L5.87125 11.9929C6.07099 12.3799 6.34433 12.6794 6.69166 12.8877L6.79456 12.7163ZM6.04927 11.9017C5.866 11.5409 5.77211 11.1012 5.77211 10.579H5.57211C5.57211 11.1248 5.67022 11.5971 5.87095 11.9923L6.04927 11.9017ZM5.77211 10.579C5.77211 9.79722 5.96885 9.20991 6.34832 8.80212L6.2019 8.66588C5.77737 9.12209 5.57211 9.76478 5.57211 10.579H5.77211ZM6.34832 8.80212C6.72817 8.39393 7.24575 8.186 7.91311 8.186V7.986C7.20047 7.986 6.62605 8.21007 6.2019 8.66588L6.34832 8.80212ZM7.91311 8.186C8.33554 8.186 8.70126 8.28131 9.01366 8.46875L9.11656 8.29725C8.76896 8.08869 8.36668 7.986 7.91311 7.986V8.186ZM9.0155 8.46982C9.33306 8.65129 9.5808 8.918 9.75867 9.27372L9.93755 9.18428C9.74341 8.796 9.46916 8.49871 9.11472 8.29618L9.0155 8.46982ZM9.75955 9.27545C9.94216 9.62355 10.0361 10.0566 10.0361 10.579H10.2361C10.2361 10.0334 10.1381 9.56645 9.93666 9.18254L9.75955 9.27545ZM6.39111 10.579C6.39111 11.1608 6.50425 11.6353 6.74068 11.9931L6.90754 11.8829C6.69997 11.5687 6.59111 11.1372 6.59111 10.579H6.39111ZM6.74184 11.9948C6.99284 12.3581 7.3877 12.533 7.90411 12.533V12.333C7.43652 12.333 7.11138 12.1779 6.90638 11.8812L6.74184 11.9948ZM7.90411 12.533C8.41505 12.533 8.80662 12.3578 9.05738 11.9948L8.89284 11.8812C8.68759 12.1782 8.36517 12.333 7.90411 12.333V12.533ZM9.05786 11.9942C9.3008 11.6361 9.41711 11.1612 9.41711 10.579H9.21711C9.21711 11.1368 9.10542 11.5679 8.89236 11.8818L9.05786 11.9942ZM9.41711 10.579C9.41711 9.99707 9.30091 9.52722 9.05689 9.18045L8.89333 9.29555C9.10531 9.59678 9.21711 10.0209 9.21711 10.579H9.41711ZM9.05689 9.18045C8.80559 8.82334 8.4108 8.652 7.89511 8.652V8.852C8.36342 8.852 8.68863 9.00466 8.89333 9.29555L9.05689 9.18045ZM7.89511 8.652C7.37952 8.652 6.98701 8.82334 6.74162 9.18148L6.9066 9.29452C7.10521 9.00466 7.4267 8.852 7.89511 8.852V8.652ZM6.74162 9.18148C6.50413 9.52807 6.39111 9.9975 6.39111 10.579H6.59111C6.59111 10.0205 6.70008 9.59593 6.9066 9.29452L6.74162 9.18148ZM14.6133 12.433L14.5402 12.3648L14.5397 12.3654L14.6133 12.433ZM11.8323 12.802L11.7809 12.8878L11.7827 12.8888L11.8323 12.802ZM11.0493 11.947L10.9602 11.9923L10.9605 11.9929L11.0493 11.947ZM11.3643 8.734L11.2911 8.66588L11.2911 8.66588L11.3643 8.734ZM14.1543 8.383L14.1029 8.46877L14.1047 8.46982L14.1543 8.383ZM14.9373 9.229L14.8479 9.27373L14.8488 9.27545L14.9373 9.229ZM11.9133 11.938L11.8299 11.9931L11.8311 11.9948L11.9133 11.938ZM14.0643 11.938L14.1466 11.9948L14.1471 11.9942L14.0643 11.938ZM14.0643 9.238L14.1461 9.18045L14.1461 9.18045L14.0643 9.238ZM11.9133 9.238L11.9958 9.29452L11.9958 9.29452L11.9133 9.238ZM15.1253 10.579C15.1253 11.3603 14.9258 11.9508 14.5402 12.3648L14.6865 12.5012C15.1168 12.0392 15.3253 11.3937 15.3253 10.579H15.1253ZM14.5397 12.3654C14.1597 12.7794 13.6423 12.99 12.9753 12.99V13.19C13.6884 13.19 14.263 12.9626 14.687 12.5006L14.5397 12.3654ZM12.9753 12.99C12.5649 12.99 12.2013 12.8977 11.8819 12.7152L11.7827 12.8888C12.1353 13.0903 12.5337 13.19 12.9753 13.19V12.99ZM11.8838 12.7163C11.5711 12.5286 11.3224 12.2581 11.1382 11.9011L10.9605 11.9929C11.1602 12.3799 11.4336 12.6794 11.7809 12.8877L11.8838 12.7163ZM11.1385 11.9017C10.9552 11.5409 10.8613 11.1012 10.8613 10.579H10.6613C10.6613 11.1248 10.7594 11.5971 10.9602 11.9923L11.1385 11.9017ZM10.8613 10.579C10.8613 9.79722 11.0581 9.20991 11.4375 8.80212L11.2911 8.66588C10.8666 9.12209 10.6613 9.76478 10.6613 10.579H10.8613ZM11.4375 8.80212C11.8174 8.39393 12.335 8.186 13.0023 8.186V7.986C12.2897 7.986 11.7153 8.21007 11.2911 8.66588L11.4375 8.80212ZM13.0023 8.186C13.4248 8.186 13.7905 8.28131 14.1029 8.46875L14.2058 8.29725C13.8582 8.08869 13.4559 7.986 13.0023 7.986V8.186ZM14.1047 8.46982C14.4223 8.65129 14.67 8.918 14.8479 9.27372L15.0268 9.18428C14.8326 8.796 14.5584 8.49871 14.2039 8.29618L14.1047 8.46982ZM14.8488 9.27545C15.0314 9.62355 15.1253 10.0566 15.1253 10.579H15.3253C15.3253 10.0334 15.2273 9.56645 15.0259 9.18254L14.8488 9.27545ZM11.4803 10.579C11.4803 11.1608 11.5935 11.6353 11.8299 11.9931L11.9968 11.8829C11.7892 11.5687 11.6803 11.1372 11.6803 10.579H11.4803ZM11.8311 11.9948C12.0821 12.3581 12.4769 12.533 12.9933 12.533V12.333C12.5257 12.333 12.2006 12.1779 11.9956 11.8812L11.8311 11.9948ZM12.9933 12.533C13.5043 12.533 13.8958 12.3578 14.1466 11.9948L13.9821 11.8812C13.7768 12.1782 13.4544 12.333 12.9933 12.333V12.533ZM14.1471 11.9942C14.39 11.6361 14.5063 11.1612 14.5063 10.579H14.3063C14.3063 11.1368 14.1946 11.5679 13.9816 11.8818L14.1471 11.9942ZM14.5063 10.579C14.5063 9.99707 14.3901 9.52722 14.1461 9.18045L13.9825 9.29555C14.1945 9.59678 14.3063 10.0209 14.3063 10.579H14.5063ZM14.1461 9.18045C13.8948 8.82334 13.5 8.652 12.9843 8.652V8.852C13.4526 8.852 13.7778 9.00466 13.9825 9.29555L14.1461 9.18045ZM12.9843 8.652C12.4687 8.652 12.0762 8.82334 11.8308 9.18148L11.9958 9.29452C12.1944 9.00466 12.5159 8.852 12.9843 8.852V8.652ZM11.8308 9.18148C11.5934 9.52807 11.4803 9.9975 11.4803 10.579H11.6803C11.6803 10.0205 11.7893 9.59593 11.9958 9.29452L11.8308 9.18148ZM16.3905 12.469L16.3146 12.5341L16.3151 12.5346L16.3905 12.469ZM16.3905 8.725L16.3147 8.65983L16.3146 8.65992L16.3905 8.725ZM18.7485 8.293L18.6977 8.37914L18.6987 8.37969L18.7485 8.293ZM19.3335 8.797L19.2538 8.85739L19.2838 8.897H19.3335V8.797ZM19.3875 8.797V8.897H19.4955L19.4873 8.78933L19.3875 8.797ZM19.3515 8.455L19.2518 8.46268L19.2523 8.46691L19.3515 8.455ZM19.3335 6.16V6.06H19.2335V6.16H19.3335ZM20.1255 6.16H20.2255V6.06H20.1255V6.16ZM20.1255 13V13.1H20.2255V13H20.1255ZM19.4865 13L19.3881 13.0178L19.403 13.1H19.4865V13ZM19.3695 12.352L19.468 12.3342L19.4531 12.252H19.3695V12.352ZM19.3335 12.352V12.252H19.2817L19.2519 12.2943L19.3335 12.352ZM18.7575 12.874L18.809 12.9597L18.7575 12.874ZM19.0275 12.019L18.9473 11.9593L18.9471 11.9596L19.0275 12.019ZM19.0455 9.229L18.9602 9.28115L18.9607 9.28186L19.0455 9.229ZM16.9845 9.256L16.9 9.2026L16.8997 9.203L16.9845 9.256ZM16.9845 11.956L16.9011 12.0111L16.9018 12.0122L16.9845 11.956ZM17.8305 12.99C17.2564 12.99 16.8051 12.7933 16.466 12.4034L16.3151 12.5346C16.696 12.9727 17.2047 13.19 17.8305 13.19V12.99ZM16.4665 12.4039C16.1281 12.0092 15.9505 11.4126 15.9505 10.597H15.7505C15.7505 11.4374 15.933 12.0888 16.3146 12.5341L16.4665 12.4039ZM15.9505 10.597C15.9505 9.7814 16.1281 9.18482 16.4665 8.79008L16.3146 8.65992C15.933 9.10518 15.7505 9.7566 15.7505 10.597H15.9505ZM16.4664 8.79017C16.812 8.38794 17.2664 8.186 17.8395 8.186V7.986C17.2127 7.986 16.7011 8.21006 16.3147 8.65983L16.4664 8.79017ZM17.8395 8.186C18.2 8.186 18.4838 8.25296 18.6977 8.37914L18.7993 8.20686C18.5453 8.05704 18.2231 7.986 17.8395 7.986V8.186ZM18.6987 8.37969C18.9284 8.51178 19.1128 8.67123 19.2538 8.85739L19.4133 8.73661C19.2543 8.52677 19.0487 8.35022 18.7984 8.20631L18.6987 8.37969ZM19.3335 8.897H19.3875V8.697H19.3335V8.897ZM19.4873 8.78933C19.4811 8.70915 19.4689 8.59346 19.4508 8.44309L19.2523 8.46691C19.2702 8.61654 19.282 8.72885 19.2878 8.80467L19.4873 8.78933ZM19.4513 8.44733C19.4393 8.29232 19.4335 8.17225 19.4335 8.086H19.2335C19.2335 8.17975 19.2398 8.30568 19.2518 8.46267L19.4513 8.44733ZM19.4335 8.086V6.16H19.2335V8.086H19.4335ZM19.3335 6.26H20.1255V6.06H19.3335V6.26ZM20.0255 6.16V13H20.2255V6.16H20.0255ZM20.1255 12.9H19.4865V13.1H20.1255V12.9ZM19.585 12.9822L19.468 12.3342L19.2711 12.3698L19.3881 13.0178L19.585 12.9822ZM19.3695 12.252H19.3335V12.452H19.3695V12.252ZM19.2519 12.2943C19.1168 12.4857 18.9356 12.6505 18.7061 12.7883L18.809 12.9597C19.0595 12.8095 19.2623 12.6263 19.4152 12.4097L19.2519 12.2943ZM18.7061 12.7883C18.4862 12.9202 18.1966 12.99 17.8305 12.99V13.19C18.2205 13.19 18.5489 13.1158 18.809 12.9597L18.7061 12.7883ZM17.9565 12.533C18.4822 12.533 18.8772 12.3906 19.108 12.0784L18.9471 11.9596C18.7698 12.1994 18.4509 12.333 17.9565 12.333V12.533ZM19.1078 12.0787C19.3363 11.7718 19.4425 11.3235 19.4425 10.75H19.2425C19.2425 11.3045 19.1388 11.7022 18.9473 11.9593L19.1078 12.0787ZM19.4425 10.75V10.606H19.2425V10.75H19.4425ZM19.4425 10.606C19.4425 9.99752 19.3426 9.51687 19.1304 9.17614L18.9607 9.28186C19.1445 9.57713 19.2425 10.0145 19.2425 10.606H19.4425ZM19.1309 9.17685C18.9078 8.81187 18.5008 8.643 17.9475 8.643V8.843C18.4623 8.843 18.7873 8.99813 18.9602 9.28114L19.1309 9.17685ZM17.9475 8.643C17.4894 8.643 17.1355 8.82978 16.9 9.2026L17.0691 9.3094C17.2656 8.99822 17.5537 8.843 17.9475 8.843V8.643ZM16.8997 9.203C16.6764 9.56041 16.5695 10.034 16.5695 10.615H16.7695C16.7695 10.056 16.8727 9.62359 17.0693 9.309L16.8997 9.203ZM16.5695 10.615C16.5695 11.2012 16.6761 11.6704 16.9011 12.0111L17.068 11.9009C16.873 11.6056 16.7695 11.1808 16.7695 10.615H16.5695ZM16.9018 12.0122C17.139 12.3613 17.4962 12.533 17.9565 12.533V12.333C17.5529 12.333 17.2621 12.1867 17.0673 11.8998L16.9018 12.0122Z" fill="black"/>
</g>
</svg>
