<svg width="61" height="57" viewBox="0 0 61 57" fill="none" xmlns="http://www.w3.org/2000/svg">
<g style="mix-blend-mode:hard-light">
<rect width="61" height="57" fill="white"/>
</g>
<g style="mix-blend-mode:multiply">
<path d="M10.754 12.32C11.15 12.32 11.492 12.416 11.78 12.608C12.068 12.788 12.212 13.13 12.212 13.634C12.212 14.126 12.068 14.468 11.78 14.66C11.492 14.852 11.15 14.948 10.754 14.948C10.346 14.948 9.998 14.852 9.71 14.66C9.434 14.468 9.296 14.126 9.296 13.634C9.296 13.13 9.434 12.788 9.71 12.608C9.998 12.416 10.346 12.32 10.754 12.32ZM12.086 16.172V26H9.404V16.172H12.086ZM21.5664 23.084C21.5664 24.08 21.2124 24.848 20.5044 25.388C19.8084 25.916 18.7644 26.18 17.3724 26.18C16.6884 26.18 16.1004 26.132 15.6084 26.036C15.1164 25.952 14.6244 25.808 14.1324 25.604V23.39C14.6604 23.63 15.2304 23.828 15.8424 23.984C16.4544 24.14 16.9944 24.218 17.4624 24.218C17.9904 24.218 18.3624 24.14 18.5784 23.984C18.8064 23.828 18.9204 23.624 18.9204 23.372C18.9204 23.204 18.8724 23.054 18.7764 22.922C18.6924 22.79 18.5004 22.64 18.2004 22.472C17.9004 22.304 17.4324 22.088 16.7964 21.824C16.1844 21.56 15.6804 21.302 15.2844 21.05C14.8884 20.786 14.5944 20.474 14.4024 20.114C14.2104 19.742 14.1144 19.28 14.1144 18.728C14.1144 17.816 14.4684 17.132 15.1764 16.676C15.8844 16.22 16.8264 15.992 18.0024 15.992C18.6144 15.992 19.1964 16.052 19.7484 16.172C20.3004 16.292 20.8704 16.49 21.4584 16.766L20.6484 18.692C20.1684 18.488 19.7124 18.32 19.2804 18.188C18.8484 18.044 18.4104 17.972 17.9664 17.972C17.1744 17.972 16.7784 18.188 16.7784 18.62C16.7784 18.776 16.8264 18.92 16.9224 19.052C17.0304 19.172 17.2284 19.304 17.5164 19.448C17.8164 19.592 18.2544 19.784 18.8304 20.024C19.3944 20.252 19.8804 20.492 20.2884 20.744C20.6964 20.984 21.0084 21.29 21.2244 21.662C21.4524 22.022 21.5664 22.496 21.5664 23.084ZM12.59 29.992C13.802 29.992 14.75 30.472 15.434 31.432H15.506L15.722 30.172H17.99V40.018C17.99 41.422 17.576 42.49 16.748 43.222C15.92 43.954 14.696 44.32 13.076 44.32C12.38 44.32 11.732 44.278 11.132 44.194C10.544 44.11 9.968 43.96 9.404 43.744V41.602C10.616 42.106 11.894 42.358 13.238 42.358C14.618 42.358 15.308 41.614 15.308 40.126V39.928C15.308 39.724 15.314 39.514 15.326 39.298C15.35 39.082 15.368 38.89 15.38 38.722H15.308C14.972 39.238 14.57 39.61 14.102 39.838C13.634 40.066 13.106 40.18 12.518 40.18C11.354 40.18 10.442 39.736 9.782 38.848C9.134 37.948 8.81 36.7 8.81 35.104C8.81 33.496 9.146 32.242 9.818 31.342C10.49 30.442 11.414 29.992 12.59 29.992ZM13.436 32.17C12.176 32.17 11.546 33.16 11.546 35.14C11.546 37.096 12.188 38.074 13.472 38.074C14.156 38.074 14.66 37.882 14.984 37.498C15.32 37.102 15.488 36.418 15.488 35.446V35.122C15.488 34.066 15.326 33.31 15.002 32.854C14.678 32.398 14.156 32.17 13.436 32.17ZM29.5426 35.068C29.5426 36.7 29.1106 37.96 28.2466 38.848C27.3946 39.736 26.2306 40.18 24.7546 40.18C23.8426 40.18 23.0266 39.982 22.3066 39.586C21.5986 39.19 21.0406 38.614 20.6326 37.858C20.2246 37.09 20.0206 36.16 20.0206 35.068C20.0206 33.436 20.4466 32.182 21.2986 31.306C22.1506 30.43 23.3206 29.992 24.8086 29.992C25.7326 29.992 26.5486 30.19 27.2566 30.586C27.9646 30.982 28.5226 31.558 28.9306 32.314C29.3386 33.058 29.5426 33.976 29.5426 35.068ZM22.7566 35.068C22.7566 36.04 22.9126 36.778 23.2246 37.282C23.5486 37.774 24.0706 38.02 24.7906 38.02C25.4986 38.02 26.0086 37.774 26.3206 37.282C26.6446 36.778 26.8066 36.04 26.8066 35.068C26.8066 34.096 26.6446 33.37 26.3206 32.89C26.0086 32.398 25.4926 32.152 24.7726 32.152C24.0646 32.152 23.5486 32.398 23.2246 32.89C22.9126 33.37 22.7566 34.096 22.7566 35.068ZM40.5072 35.068C40.5072 36.7 40.0752 37.96 39.2112 38.848C38.3592 39.736 37.1952 40.18 35.7192 40.18C34.8072 40.18 33.9912 39.982 33.2712 39.586C32.5632 39.19 32.0052 38.614 31.5972 37.858C31.1892 37.09 30.9852 36.16 30.9852 35.068C30.9852 33.436 31.4112 32.182 32.2632 31.306C33.1152 30.43 34.2852 29.992 35.7732 29.992C36.6972 29.992 37.5132 30.19 38.2212 30.586C38.9292 30.982 39.4872 31.558 39.8952 32.314C40.3032 33.058 40.5072 33.976 40.5072 35.068ZM33.7212 35.068C33.7212 36.04 33.8772 36.778 34.1892 37.282C34.5132 37.774 35.0352 38.02 35.7552 38.02C36.4632 38.02 36.9732 37.774 37.2852 37.282C37.6092 36.778 37.7712 36.04 37.7712 35.068C37.7712 34.096 37.6092 33.37 37.2852 32.89C36.9732 32.398 36.4572 32.152 35.7372 32.152C35.0292 32.152 34.5132 32.398 34.1892 32.89C33.8772 33.37 33.7212 34.096 33.7212 35.068ZM45.6577 40.18C44.5657 40.18 43.6717 39.754 42.9757 38.902C42.2917 38.038 41.9497 36.772 41.9497 35.104C41.9497 33.424 42.2977 32.152 42.9937 31.288C43.6897 30.424 44.6017 29.992 45.7297 29.992C46.4377 29.992 47.0197 30.13 47.4757 30.406C47.9317 30.682 48.2917 31.024 48.5557 31.432H48.6457C48.6097 31.24 48.5677 30.964 48.5197 30.604C48.4717 30.232 48.4477 29.854 48.4477 29.47V26.32H51.1297V40H49.0777L48.5557 38.722H48.4477C48.1837 39.13 47.8297 39.478 47.3857 39.766C46.9417 40.042 46.3657 40.18 45.6577 40.18ZM46.5937 38.038C47.3377 38.038 47.8597 37.822 48.1597 37.39C48.4597 36.946 48.6157 36.286 48.6277 35.41V35.122C48.6277 34.162 48.4777 33.43 48.1777 32.926C47.8897 32.422 47.3497 32.17 46.5577 32.17C45.9697 32.17 45.5077 32.428 45.1717 32.944C44.8357 33.448 44.6677 34.18 44.6677 35.14C44.6677 36.1 44.8357 36.826 45.1717 37.318C45.5077 37.798 45.9817 38.038 46.5937 38.038Z" fill="black"/>
<path d="M11.78 12.608L11.6135 12.8577L11.621 12.8624L11.78 12.608ZM11.78 14.66L11.6136 14.4104L11.6136 14.4104L11.78 14.66ZM9.71 14.66L9.53865 14.9063L9.54359 14.9096L9.71 14.66ZM9.71 12.608L9.87389 12.8593L9.87641 12.8576L9.71 12.608ZM12.086 16.172H12.386V15.872H12.086V16.172ZM12.086 26V26.3H12.386V26H12.086ZM9.404 26H9.104V26.3H9.404V26ZM9.404 16.172V15.872H9.104V16.172H9.404ZM10.754 12.62C11.0996 12.62 11.3817 12.703 11.6136 12.8576L11.9464 12.3584C11.6023 12.129 11.2004 12.02 10.754 12.02V12.62ZM11.621 12.8624C11.7837 12.9641 11.912 13.1796 11.912 13.634H12.512C12.512 13.0804 12.3523 12.6119 11.939 12.3536L11.621 12.8624ZM11.912 13.634C11.912 14.0714 11.7862 14.2953 11.6136 14.4104L11.9464 14.9096C12.3498 14.6407 12.512 14.1806 12.512 13.634H11.912ZM11.6136 14.4104C11.3817 14.565 11.0996 14.648 10.754 14.648V15.248C11.2004 15.248 11.6023 15.139 11.9464 14.9096L11.6136 14.4104ZM10.754 14.648C10.3944 14.648 10.1068 14.564 9.87641 14.4104L9.54359 14.9096C9.88915 15.14 10.2976 15.248 10.754 15.248V14.648ZM9.88132 14.4137C9.71877 14.3007 9.596 14.0761 9.596 13.634H8.996C8.996 14.1759 9.14923 14.6353 9.53868 14.9063L9.88132 14.4137ZM9.596 13.634C9.596 13.1748 9.72125 12.9588 9.87388 12.8593L9.54612 12.3567C9.14675 12.6172 8.996 13.0852 8.996 13.634H9.596ZM9.87641 12.8576C10.1068 12.704 10.3944 12.62 10.754 12.62V12.02C10.2976 12.02 9.88915 12.128 9.54359 12.3584L9.87641 12.8576ZM11.786 16.172V26H12.386V16.172H11.786ZM12.086 25.7H9.404V26.3H12.086V25.7ZM9.704 26V16.172H9.104V26H9.704ZM9.404 16.472H12.086V15.872H9.404V16.472ZM20.5044 25.388L20.6857 25.627L20.6863 25.6265L20.5044 25.388ZM15.6084 26.036L15.6658 25.7415L15.6589 25.7403L15.6084 26.036ZM14.1324 25.604H13.8324V25.8044L14.0175 25.8811L14.1324 25.604ZM14.1324 23.39L14.2565 23.1169L13.8324 22.9241V23.39H14.1324ZM18.5784 23.984L18.4089 23.7363L18.4027 23.7408L18.5784 23.984ZM18.7764 22.922L18.5233 23.0831L18.5283 23.0909L18.5338 23.0985L18.7764 22.922ZM16.7964 21.824L16.6775 22.0995L16.6814 22.1011L16.7964 21.824ZM15.2844 21.05L15.1179 21.2997L15.1233 21.3031L15.2844 21.05ZM14.4024 20.114L14.1358 20.2516L14.1377 20.2552L14.4024 20.114ZM15.1764 16.676L15.3388 16.9282L15.3388 16.9282L15.1764 16.676ZM19.7484 16.172L19.6846 16.4652L19.6846 16.4652L19.7484 16.172ZM21.4584 16.766L21.7349 16.8823L21.8466 16.6168L21.5858 16.4944L21.4584 16.766ZM20.6484 18.692L20.531 18.9681L20.8082 19.0859L20.9249 18.8083L20.6484 18.692ZM19.2804 18.188L19.1855 18.4727L19.1927 18.4749L19.2804 18.188ZM16.9224 19.052L16.6798 19.2285L16.6889 19.2411L16.6994 19.2527L16.9224 19.052ZM17.5164 19.448L17.3822 19.7164L17.3866 19.7185L17.5164 19.448ZM18.8304 20.024L18.715 20.3009L18.7179 20.3021L18.8304 20.024ZM20.2884 20.744L20.1307 20.9993L20.1363 21.0026L20.2884 20.744ZM21.2244 21.662L20.9647 21.8128L20.9709 21.8225L21.2244 21.662ZM21.2664 23.084C21.2664 23.9991 20.9465 24.6735 20.3224 25.1495L20.6863 25.6265C21.4783 25.0225 21.8664 24.1609 21.8664 23.084H21.2664ZM20.3231 25.149C19.7021 25.6201 18.735 25.88 17.3724 25.88V26.48C18.7938 26.48 19.9147 26.2119 20.6857 25.627L20.3231 25.149ZM17.3724 25.88C16.7012 25.88 16.1335 25.8328 15.6658 25.7416L15.5509 26.3304C16.0673 26.4312 16.6755 26.48 17.3724 26.48V25.88ZM15.6589 25.7403C15.1904 25.6603 14.7199 25.5229 14.2473 25.3269L14.0175 25.8811C14.5288 26.0931 15.0424 26.2437 15.5579 26.3317L15.6589 25.7403ZM14.4324 25.604V23.39H13.8324V25.604H14.4324ZM14.0082 23.6631C14.5537 23.9111 15.1406 24.1147 15.7683 24.2747L15.9165 23.6933C15.3201 23.5413 14.767 23.3489 14.2565 23.1169L14.0082 23.6631ZM15.7683 24.2747C16.3967 24.4349 16.9624 24.518 17.4624 24.518V23.918C17.0263 23.918 16.5121 23.8451 15.9165 23.6933L15.7683 24.2747ZM17.4624 24.518C18.0016 24.518 18.4567 24.4419 18.754 24.2272L18.4027 23.7408C18.268 23.8381 17.9791 23.918 17.4624 23.918V24.518ZM18.7478 24.2316C19.0483 24.026 19.2204 23.7337 19.2204 23.372H18.6204C18.6204 23.5143 18.5645 23.63 18.409 23.7364L18.7478 24.2316ZM19.2204 23.372C19.2204 23.1426 19.1534 22.9304 19.019 22.7455L18.5338 23.0985C18.5913 23.1776 18.6204 23.2654 18.6204 23.372H19.2204ZM19.0295 22.7609C18.9019 22.5605 18.6501 22.38 18.347 22.2102L18.0538 22.7338C18.3506 22.9 18.4828 23.0195 18.5233 23.0831L19.0295 22.7609ZM18.347 22.2102C18.031 22.0333 17.5498 21.8119 16.9114 21.5469L16.6814 22.1011C17.315 22.3641 17.7697 22.5747 18.0538 22.7338L18.347 22.2102ZM16.9152 21.5485C16.3123 21.2885 15.8237 21.0376 15.4454 20.7969L15.1233 21.3031C15.5371 21.5664 16.0564 21.8315 16.6775 22.0995L16.9152 21.5485ZM15.4508 20.8004C15.0891 20.5593 14.8322 20.2824 14.6671 19.9728L14.1377 20.2552C14.3566 20.6656 14.6876 21.0127 15.118 21.2996L15.4508 20.8004ZM14.669 19.9764C14.5048 19.6583 14.4144 19.2468 14.4144 18.728H13.8144C13.8144 19.3132 13.916 19.8257 14.1358 20.2516L14.669 19.9764ZM14.4144 18.728C14.4144 17.9079 14.7247 17.3237 15.3388 16.9282L15.0139 16.4238C14.212 16.9403 13.8144 17.7241 13.8144 18.728H14.4144ZM15.3388 16.9282C15.9828 16.5135 16.862 16.292 18.0024 16.292V15.692C16.7907 15.692 15.786 15.9265 15.0139 16.4238L15.3388 16.9282ZM18.0024 16.292C18.5947 16.292 19.1552 16.3501 19.6846 16.4652L19.8121 15.8788C19.2375 15.7539 18.634 15.692 18.0024 15.692V16.292ZM19.6846 16.4652C20.2117 16.5797 20.7603 16.7697 21.3309 17.0376L21.5858 16.4944C20.9804 16.2103 20.3891 16.0043 19.8121 15.8788L19.6846 16.4652ZM21.1818 16.6497L20.3718 18.5757L20.9249 18.8083L21.7349 16.8823L21.1818 16.6497ZM20.7657 18.4159C20.2775 18.2084 19.8115 18.0366 19.368 17.9011L19.1927 18.4749C19.6132 18.6034 20.0593 18.7676 20.531 18.9681L20.7657 18.4159ZM19.3752 17.9034C18.9134 17.7495 18.4434 17.672 17.9664 17.672V18.272C18.3773 18.272 18.7833 18.3385 19.1855 18.4726L19.3752 17.9034ZM17.9664 17.672C17.5529 17.672 17.1956 17.7267 16.9317 17.8706C16.7953 17.9451 16.6783 18.0464 16.5966 18.1801C16.5146 18.3144 16.4784 18.4646 16.4784 18.62H17.0784C17.0784 18.5594 17.0917 18.5206 17.1086 18.4929C17.1259 18.4646 17.1575 18.4309 17.219 18.3974C17.3511 18.3253 17.5878 18.272 17.9664 18.272V17.672ZM16.4784 18.62C16.4784 18.8425 16.5483 19.0477 16.6798 19.2285L17.165 18.8755C17.1044 18.7923 17.0784 18.7095 17.0784 18.62H16.4784ZM16.6994 19.2527C16.8468 19.4164 17.0873 19.5689 17.3822 19.7163L17.6505 19.1797C17.3695 19.0391 17.214 18.9276 17.1454 18.8513L16.6994 19.2527ZM17.3866 19.7185C17.6938 19.8659 18.1375 20.0603 18.715 20.3009L18.9458 19.7471C18.3712 19.5077 17.939 19.3181 17.6462 19.1775L17.3866 19.7185ZM18.7179 20.3021C19.2702 20.5254 19.7403 20.7581 20.1307 20.9992L20.446 20.4888C20.0204 20.2259 19.5185 19.9786 18.9428 19.7459L18.7179 20.3021ZM20.1363 21.0026C20.5044 21.2191 20.7774 21.4896 20.9649 21.8126L21.4838 21.5114C21.2394 21.0904 20.8884 20.7489 20.4405 20.4854L20.1363 21.0026ZM20.9709 21.8225C21.159 22.1195 21.2664 22.532 21.2664 23.084H21.8664C21.8664 22.46 21.7457 21.9245 21.4778 21.5015L20.9709 21.8225ZM15.434 31.432L15.1897 31.6061L15.2794 31.732H15.434V31.432ZM15.506 31.432V31.732H15.7589L15.8017 31.4827L15.506 31.432ZM15.722 30.172V29.872H15.4691L15.4263 30.1213L15.722 30.172ZM17.99 30.172H18.29V29.872H17.99V30.172ZM16.748 43.222L16.9467 43.4468L16.9467 43.4468L16.748 43.222ZM11.132 44.194L11.0896 44.491L11.0904 44.4911L11.132 44.194ZM9.404 43.744H9.104V43.9504L9.29671 44.0242L9.404 43.744ZM9.404 41.602L9.51919 41.325L9.104 41.1523V41.602H9.404ZM15.326 39.298L15.0278 39.2649L15.0269 39.2731L15.0265 39.2814L15.326 39.298ZM15.38 38.722L15.6792 38.7434L15.7022 38.422H15.38V38.722ZM15.308 38.722V38.422H15.1454L15.0566 38.5583L15.308 38.722ZM14.102 39.838L13.9706 39.5683L14.102 39.838ZM9.782 38.848L9.53851 39.0233L9.54122 39.027L9.782 38.848ZM14.984 37.498L14.7552 37.3039L14.7547 37.3045L14.984 37.498ZM15.002 32.854L15.2466 32.6802L15.2466 32.6802L15.002 32.854ZM12.59 30.292C13.7082 30.292 14.5638 30.7277 15.1897 31.6061L15.6783 31.2579C14.9362 30.2163 13.8958 29.692 12.59 29.692V30.292ZM15.434 31.732H15.506V31.132H15.434V31.732ZM15.8017 31.4827L16.0177 30.2227L15.4263 30.1213L15.2103 31.3813L15.8017 31.4827ZM15.722 30.472H17.99V29.872H15.722V30.472ZM17.69 30.172V40.018H18.29V30.172H17.69ZM17.69 40.018C17.69 41.3609 17.2963 42.3368 16.5493 42.9972L16.9467 43.4468C17.8557 42.6432 18.29 41.4831 18.29 40.018H17.69ZM16.5493 42.9972C15.7968 43.6625 14.6562 44.02 13.076 44.02V44.62C14.7358 44.62 16.0432 44.2455 16.9467 43.4468L16.5493 42.9972ZM13.076 44.02C12.3919 44.02 11.758 43.9787 11.1736 43.8969L11.0904 44.4911C11.706 44.5773 12.3681 44.62 13.076 44.62V44.02ZM11.1744 43.897C10.609 43.8162 10.0547 43.672 9.51129 43.4638L9.29671 44.0242C9.88128 44.248 10.479 44.4038 11.0896 44.491L11.1744 43.897ZM9.704 43.744V41.602H9.104V43.744H9.704ZM9.28881 41.879C10.5382 42.3986 11.8554 42.658 13.238 42.658V42.058C11.9326 42.058 10.6938 41.8134 9.51919 41.325L9.28881 41.879ZM13.238 42.658C13.9803 42.658 14.5905 42.4568 15.0105 42.004C15.4265 41.5554 15.608 40.9109 15.608 40.126H15.008C15.008 40.8291 14.8445 41.3006 14.5705 41.596C14.3005 41.8872 13.8757 42.058 13.238 42.058V42.658ZM15.608 40.126V39.928H15.008V40.126H15.608ZM15.608 39.928C15.608 39.7299 15.6138 39.5254 15.6255 39.3146L15.0265 39.2814C15.0142 39.5026 15.008 39.7181 15.008 39.928H15.608ZM15.6242 39.3311C15.6485 39.1123 15.6669 38.9162 15.6792 38.7434L15.0808 38.7006C15.0691 38.8638 15.0515 39.0517 15.0278 39.2649L15.6242 39.3311ZM15.38 38.422H15.308V39.022H15.38V38.422ZM15.0566 38.5583C14.7448 39.0371 14.3815 39.3681 13.9706 39.5683L14.2334 40.1077C14.7585 39.8519 15.1992 39.4389 15.5594 38.8857L15.0566 38.5583ZM13.9706 39.5683C13.5486 39.7739 13.0664 39.88 12.518 39.88V40.48C13.1456 40.48 13.7194 40.3581 14.2334 40.1077L13.9706 39.5683ZM12.518 39.88C11.4431 39.88 10.6228 39.4764 10.0228 38.669L9.54122 39.027C10.2612 39.9956 11.2649 40.48 12.518 40.48V39.88ZM10.0255 38.6727C9.42718 37.8418 9.11 36.6636 9.11 35.104H8.51C8.51 36.7364 8.84082 38.0542 9.53854 39.0233L10.0255 38.6727ZM9.11 35.104C9.11 33.5337 9.43861 32.3515 10.0584 31.5215L9.57762 31.1625C8.85339 32.1325 8.51 33.4583 8.51 35.104H9.11ZM10.0584 31.5215C10.6707 30.7014 11.5034 30.292 12.59 30.292V29.692C11.3246 29.692 10.3093 30.1826 9.57762 31.1625L10.0584 31.5215ZM13.436 31.87C12.7125 31.87 12.1402 32.1625 11.7654 32.7514C11.4053 33.3173 11.246 34.1278 11.246 35.14H11.846C11.846 34.1722 12.0017 33.4977 12.2716 33.0736C12.5268 32.6725 12.8995 32.47 13.436 32.47V31.87ZM11.246 35.14C11.246 36.1413 11.4086 36.9443 11.7767 37.5051C12.1593 38.0879 12.7406 38.374 13.472 38.374V37.774C12.9194 37.774 12.5377 37.5711 12.2783 37.1759C12.0044 36.7586 11.846 36.0947 11.846 35.14H11.246ZM13.472 38.374C14.2107 38.374 14.8137 38.1651 15.2133 37.6915L14.7547 37.3045C14.5063 37.5989 14.1013 37.774 13.472 37.774V38.374ZM15.2128 37.6921C15.6207 37.2113 15.788 36.4348 15.788 35.446H15.188C15.188 36.4012 15.0193 36.9927 14.7552 37.3039L15.2128 37.6921ZM15.788 35.446V35.122H15.188V35.446H15.788ZM15.788 35.122C15.788 34.051 15.6267 33.2153 15.2466 32.6802L14.7574 33.0278C15.0253 33.4047 15.188 34.081 15.188 35.122H15.788ZM15.2466 32.6802C14.8505 32.1228 14.2222 31.87 13.436 31.87V32.47C14.0898 32.47 14.5055 32.6732 14.7574 33.0278L15.2466 32.6802ZM28.2466 38.848L28.0316 38.6388L28.0302 38.6403L28.2466 38.848ZM22.3066 39.586L22.1602 39.8478L22.162 39.8489L22.3066 39.586ZM20.6326 37.858L20.3677 37.9987L20.3686 38.0005L20.6326 37.858ZM21.2986 31.306L21.5137 31.5152L21.5137 31.5152L21.2986 31.306ZM27.2566 30.586L27.1102 30.8478L27.1102 30.8478L27.2566 30.586ZM28.9306 32.314L28.6666 32.4565L28.6676 32.4582L28.9306 32.314ZM23.2246 37.282L22.9694 37.44L22.9741 37.447L23.2246 37.282ZM26.3206 37.282L26.0683 37.1198L26.0673 37.1213L26.3206 37.282ZM26.3206 32.89L26.0672 33.0507L26.072 33.0578L26.3206 32.89ZM23.2246 32.89L22.9741 32.725L22.9731 32.7265L23.2246 32.89ZM29.2426 35.068C29.2426 36.6475 28.8255 37.8228 28.0316 38.6388L28.4616 39.0572C29.3957 38.0972 29.8426 36.7525 29.8426 35.068H29.2426ZM28.0302 38.6403C27.2458 39.4578 26.1665 39.88 24.7546 39.88V40.48C26.2948 40.48 27.5434 40.0142 28.4631 39.0557L28.0302 38.6403ZM24.7546 39.88C23.8875 39.88 23.1222 39.6922 22.4512 39.3231L22.162 39.8489C22.9311 40.2718 23.7977 40.48 24.7546 40.48V39.88ZM22.4531 39.3242C21.7978 38.9577 21.2792 38.4245 20.8966 37.7155L20.3686 38.0005C20.802 38.8035 21.3995 39.4223 22.1602 39.8478L22.4531 39.3242ZM20.8976 37.7173C20.5177 37.0023 20.3206 36.1232 20.3206 35.068H19.7206C19.7206 36.1968 19.9315 37.1777 20.3677 37.9987L20.8976 37.7173ZM20.3206 35.068C20.3206 33.4872 20.7324 32.3184 21.5137 31.5152L21.0836 31.0968C20.1608 32.0456 19.7206 33.3848 19.7206 35.068H20.3206ZM21.5137 31.5152C22.2973 30.7095 23.3828 30.292 24.8086 30.292V29.692C23.2585 29.692 22.004 30.1505 21.0836 31.0968L21.5137 31.5152ZM24.8086 30.292C25.6886 30.292 26.4528 30.4802 27.1102 30.8478L27.4031 30.3242C26.6444 29.8998 25.7767 29.692 24.8086 29.692V30.292ZM27.1102 30.8478C27.7655 31.2143 28.284 31.7475 28.6666 32.4565L29.1946 32.1715C28.7612 31.3685 28.1638 30.7497 27.4031 30.3242L27.1102 30.8478ZM28.6676 32.4582C29.0454 33.1471 29.2426 34.0123 29.2426 35.068H29.8426C29.8426 33.9397 29.6319 32.9689 29.1937 32.1698L28.6676 32.4582ZM22.4566 35.068C22.4566 36.0637 22.6149 36.8671 22.9695 37.4399L23.4797 37.1241C23.2103 36.6889 23.0566 36.0163 23.0566 35.068H22.4566ZM22.9741 37.447C23.3663 38.0427 23.9954 38.32 24.7906 38.32V37.72C24.1459 37.72 23.7309 37.5053 23.4752 37.117L22.9741 37.447ZM24.7906 38.32C25.5758 38.32 26.1945 38.041 26.574 37.4427L26.0673 37.1213C25.8227 37.507 25.4214 37.72 24.7906 37.72V38.32ZM26.573 37.4442C26.9419 36.8703 27.1066 36.0651 27.1066 35.068H26.5066C26.5066 36.0149 26.3473 36.6857 26.0683 37.1198L26.573 37.4442ZM27.1066 35.068C27.1066 34.0726 26.9425 33.2751 26.5693 32.7222L26.072 33.0578C26.3467 33.4649 26.5066 34.1194 26.5066 35.068H27.1066ZM26.574 32.7293C26.1935 32.1294 25.5675 31.852 24.7726 31.852V32.452C25.4177 32.452 25.8237 32.6666 26.0673 33.0507L26.574 32.7293ZM24.7726 31.852C23.9872 31.852 23.3653 32.1309 22.9741 32.725L23.4752 33.055C23.7319 32.6651 24.1421 32.452 24.7726 32.452V31.852ZM22.9731 32.7265C22.6143 33.2785 22.4566 34.074 22.4566 35.068H23.0566C23.0566 34.118 23.2109 33.4615 23.4762 33.0535L22.9731 32.7265ZM39.2112 38.848L38.9961 38.6388L38.9947 38.6403L39.2112 38.848ZM33.2712 39.586L33.1247 39.8478L33.1266 39.8489L33.2712 39.586ZM31.5972 37.858L31.3322 37.9987L31.3331 38.0005L31.5972 37.858ZM32.2632 31.306L32.4782 31.5152L32.4782 31.5152L32.2632 31.306ZM38.2212 30.586L38.0747 30.8478L38.0747 30.8478L38.2212 30.586ZM39.8952 32.314L39.6311 32.4565L39.6321 32.4582L39.8952 32.314ZM34.1892 37.282L33.934 37.44L33.9386 37.447L34.1892 37.282ZM37.2852 37.282L37.0328 37.1198L37.0318 37.1213L37.2852 37.282ZM37.2852 32.89L37.0317 33.0507L37.0365 33.0578L37.2852 32.89ZM34.1892 32.89L33.9386 32.725L33.9376 32.7265L34.1892 32.89ZM40.2072 35.068C40.2072 36.6475 39.7901 37.8228 38.9961 38.6388L39.4262 39.0572C40.3602 38.0972 40.8072 36.7525 40.8072 35.068H40.2072ZM38.9947 38.6403C38.2104 39.4578 37.131 39.88 35.7192 39.88V40.48C37.2593 40.48 38.508 40.0142 39.4276 39.0557L38.9947 38.6403ZM35.7192 39.88C34.852 39.88 34.0867 39.6922 33.4157 39.3231L33.1266 39.8489C33.8956 40.2718 34.7623 40.48 35.7192 40.48V39.88ZM33.4176 39.3242C32.7623 38.9577 32.2438 38.4245 31.8612 37.7155L31.3331 38.0005C31.7665 38.8035 32.364 39.4223 33.1247 39.8478L33.4176 39.3242ZM31.8621 37.7173C31.4823 37.0023 31.2852 36.1232 31.2852 35.068H30.6852C30.6852 36.1968 30.896 37.1777 31.3322 37.9987L31.8621 37.7173ZM31.2852 35.068C31.2852 33.4872 31.697 32.3184 32.4782 31.5152L32.0481 31.0968C31.1254 32.0456 30.6852 33.3848 30.6852 35.068H31.2852ZM32.4782 31.5152C33.2618 30.7095 34.3473 30.292 35.7732 30.292V29.692C34.223 29.692 32.9685 30.1505 32.0481 31.0968L32.4782 31.5152ZM35.7732 30.292C36.6531 30.292 37.4174 30.4802 38.0747 30.8478L38.3676 30.3242C37.6089 29.8998 36.7412 29.692 35.7732 29.692V30.292ZM38.0747 30.8478C38.73 31.2143 39.2485 31.7475 39.6311 32.4565L40.1592 32.1715C39.7258 31.3685 39.1283 30.7497 38.3676 30.3242L38.0747 30.8478ZM39.6321 32.4582C40.0099 33.1471 40.2072 34.0123 40.2072 35.068H40.8072C40.8072 33.9397 40.5964 32.9689 40.1582 32.1698L39.6321 32.4582ZM33.4212 35.068C33.4212 36.0637 33.5795 36.8671 33.9341 37.4399L34.4442 37.1241C34.1748 36.6889 34.0212 36.0163 34.0212 35.068H33.4212ZM33.9386 37.447C34.3309 38.0427 34.9599 38.32 35.7552 38.32V37.72C35.1104 37.72 34.6954 37.5053 34.4397 37.117L33.9386 37.447ZM35.7552 38.32C36.5403 38.32 37.1591 38.041 37.5385 37.4427L37.0318 37.1213C36.7872 37.507 36.386 37.72 35.7552 37.72V38.32ZM37.5375 37.4442C37.9064 36.8703 38.0712 36.0651 38.0712 35.068H37.4712C37.4712 36.0149 37.3119 36.6857 37.0328 37.1198L37.5375 37.4442ZM38.0712 35.068C38.0712 34.0726 37.9071 33.2751 37.5338 32.7222L37.0365 33.0578C37.3112 33.4649 37.4712 34.1194 37.4712 35.068H38.0712ZM37.5385 32.7293C37.1581 32.1294 36.5321 31.852 35.7372 31.852V32.452C36.3823 32.452 36.7882 32.6666 37.0318 33.0507L37.5385 32.7293ZM35.7372 31.852C34.9517 31.852 34.3299 32.1309 33.9386 32.725L34.4397 33.055C34.6964 32.6651 35.1066 32.452 35.7372 32.452V31.852ZM33.9376 32.7265C33.5789 33.2785 33.4212 34.074 33.4212 35.068H34.0212C34.0212 34.118 34.1755 33.4615 34.4407 33.0535L33.9376 32.7265ZM42.9757 38.902L42.7404 39.0882L42.7434 39.0918L42.9757 38.902ZM42.9937 31.288L43.2273 31.4762L43.2273 31.4762L42.9937 31.288ZM47.4757 30.406L47.631 30.1493L47.631 30.1493L47.4757 30.406ZM48.5557 31.432L48.3038 31.595L48.3925 31.732H48.5557V31.432ZM48.6457 31.432V31.732H49.0072L48.9405 31.3767L48.6457 31.432ZM48.5197 30.604L48.2222 30.6424L48.2223 30.6436L48.5197 30.604ZM48.4477 26.32V26.02H48.1477V26.32H48.4477ZM51.1297 26.32H51.4297V26.02H51.1297V26.32ZM51.1297 40V40.3H51.4297V40H51.1297ZM49.0777 40L48.8 40.1134L48.8762 40.3H49.0777V40ZM48.5557 38.722L48.8334 38.6086L48.7572 38.422H48.5557V38.722ZM48.4477 38.722V38.422H48.2845L48.1958 38.559L48.4477 38.722ZM47.3857 39.766L47.5441 40.0208L47.5489 40.0177L47.3857 39.766ZM48.1597 37.39L48.4061 37.5611L48.4083 37.558L48.1597 37.39ZM48.6277 35.41L48.9277 35.4141V35.41H48.6277ZM48.1777 32.926L47.9172 33.0749L47.9199 33.0794L48.1777 32.926ZM45.1717 32.944L45.4213 33.1104L45.4231 33.1077L45.1717 32.944ZM45.1717 37.318L44.9239 37.4872L44.9259 37.49L45.1717 37.318ZM45.6577 39.88C44.6565 39.88 43.8475 39.4951 43.208 38.7122L42.7434 39.0918C43.4958 40.0129 44.4748 40.48 45.6577 40.48V39.88ZM43.2109 38.7158C42.5856 37.9259 42.2497 36.7375 42.2497 35.104H41.6497C41.6497 36.8065 41.9978 38.1501 42.7405 39.0882L43.2109 38.7158ZM42.2497 35.104C42.2497 33.4588 42.5915 32.2655 43.2273 31.4762L42.7601 31.0998C42.0039 32.0385 41.6497 33.3892 41.6497 35.104H42.2497ZM43.2273 31.4762C43.8653 30.6843 44.6907 30.292 45.7297 30.292V29.692C44.5127 29.692 43.5141 30.1637 42.7601 31.0998L43.2273 31.4762ZM45.7297 30.292C46.4004 30.292 46.9242 30.4229 47.3203 30.6626L47.631 30.1493C47.1152 29.8371 46.475 29.692 45.7297 29.692V30.292ZM47.3203 30.6626C47.7413 30.9174 48.0668 31.2287 48.3038 31.595L48.8076 31.269C48.5166 30.8193 48.1221 30.4466 47.631 30.1493L47.3203 30.6626ZM48.5557 31.732H48.6457V31.132H48.5557V31.732ZM48.9405 31.3767C48.906 31.1926 48.8648 30.9227 48.8171 30.5644L48.2223 30.6436C48.2705 31.0053 48.3134 31.2874 48.3508 31.4873L48.9405 31.3767ZM48.8172 30.5656C48.7709 30.2066 48.7477 29.8415 48.7477 29.47H48.1477C48.1477 29.8665 48.1725 30.2574 48.2222 30.6424L48.8172 30.5656ZM48.7477 29.47V26.32H48.1477V29.47H48.7477ZM48.4477 26.62H51.1297V26.02H48.4477V26.62ZM50.8297 26.32V40H51.4297V26.32H50.8297ZM51.1297 39.7H49.0777V40.3H51.1297V39.7ZM49.3554 39.8866L48.8334 38.6086L48.278 38.8354L48.8 40.1134L49.3554 39.8866ZM48.5557 38.422H48.4477V39.022H48.5557V38.422ZM48.1958 38.559C47.9568 38.9285 47.6342 39.2472 47.2224 39.5143L47.5489 40.0177C48.0252 39.7088 48.4106 39.3315 48.6996 38.885L48.1958 38.559ZM47.2273 39.5112C46.8449 39.7489 46.3289 39.88 45.6577 39.88V40.48C46.4025 40.48 47.0385 40.3351 47.5441 40.0208L47.2273 39.5112ZM46.5937 38.338C47.3921 38.338 48.029 38.1042 48.4061 37.5611L47.9133 37.2189C47.6904 37.5398 47.2832 37.738 46.5937 37.738V38.338ZM48.4083 37.558C48.7558 37.0437 48.9153 36.315 48.9277 35.4141L48.3277 35.4059C48.3161 36.257 48.1636 36.8483 47.9111 37.222L48.4083 37.558ZM48.9277 35.41V35.122H48.3277V35.41H48.9277ZM48.9277 35.122C48.9277 34.1388 48.7755 33.3438 48.4355 32.7726L47.9199 33.0794C48.1799 33.5162 48.3277 34.1852 48.3277 35.122H48.9277ZM48.4382 32.7772C48.0779 32.1467 47.413 31.87 46.5577 31.87V32.47C47.2864 32.47 47.7015 32.6973 47.9172 33.0748L48.4382 32.7772ZM46.5577 31.87C45.8626 31.87 45.3085 32.1841 44.9203 32.7803L45.4231 33.1077C45.7069 32.6719 46.0768 32.47 46.5577 32.47V31.87ZM44.9221 32.7776C44.5392 33.352 44.3677 34.1526 44.3677 35.14H44.9677C44.9677 34.2074 45.1322 33.544 45.4213 33.1104L44.9221 32.7776ZM44.3677 35.14C44.3677 36.1266 44.5389 36.9233 44.9239 37.4872L45.4194 37.1488C45.1325 36.7287 44.9677 36.0734 44.9677 35.14H44.3677ZM44.9259 37.49C45.321 38.0544 45.889 38.338 46.5937 38.338V37.738C46.0744 37.738 45.6944 37.5416 45.4175 37.146L44.9259 37.49Z" fill="black"/>
</g>
</svg>
